<svg xmlns="http://www.w3.org/2000/svg" xmlns:xlink="http://www.w3.org/1999/xlink" version="1.1" width="30" height="30" style=""><rect id="backgroundrect" width="100%" height="100%" x="0" y="0" fill="none" stroke="none" class="" style=""/>

<g class="currentLayer" style=""><title>Layer 1</title><path d="M27.142859106298523,29.999998970362544 H2.8571431552445663 a2.8571430530651716,2.7272726336693554 0 0 1 -2.8571430530651716,-2.7272726336693554 V4.0909089505036675 A2.8571430530651716,2.7272726336693554 0 0 1 2.8571431552445663,1.3636363168343115 h2.8571430530651716 V-3.639311062015769e-13 h1.4285715265325873 V1.3636363168343115 H22.857144526700772 V-3.639311062015769e-13 h1.4285715265325873 V1.3636363168343115 h2.8571430530651716 a2.8571430530651716,2.7272726336693554 0 0 1 2.8571430530651716,2.7272726336693554 V27.272726336693182 A2.8571430530651716,2.7272726336693554 0 0 1 27.142859106298523,29.999998970362544 zM28.571430632831103,4.0909089505036675 a1.4285715265325873,1.3636363168346777 0 0 0 -1.4285715265325873,-1.3636363168346777 H24.285716053233354 V4.0909089505036675 H22.857144526700772 V2.727272633668993 H7.1428577348423214 V4.0909089505036675 H5.71428620830973 V2.727272633668993 H2.8571431552445663 A1.4285715265325873,1.3636363168346777 0 0 0 1.4285716287119805,4.0909089505036675 v4.090908950504033 H28.571430632831103 V4.0909089505036675 zm0,5.454545267338711 H1.4285716287119805 V27.272726336693182 a1.4285715265325873,1.3636363168346777 0 0 0 1.4285715265325873,1.3636363168346777 H27.142859106298523 a1.4285715265325873,1.3636363168346777 0 0 0 1.4285715265325873,-1.3636363168346777 V9.54545421784238 zM25.714287579765934,25.9090900198585 H21.428573000168175 a1.4285715265325873,1.3636363168346777 0 0 1 -1.4285715265325873,-1.3636363168346777 V21.81818106935447 a1.4285715265325873,1.3636363168346777 0 0 1 1.4285715265325873,-1.3636363168346777 h4.285714579597757 a1.4285715265325873,1.3636363168346777 0 0 1 1.4285715265325873,1.3636363168346777 v2.7272726336693554 A1.4285715265325873,1.3636363168346777 0 0 1 25.714287579765934,25.9090900198585 zm0,-4.090908950504033 H21.428573000168175 v2.7272726336693554 h4.285714579597757 V21.81818106935447 zm0,-2.7272726336693554 H21.428573000168175 a1.4285715265325873,1.3636363168346777 0 0 1 -1.4285715265325873,-1.3636363168346777 V14.99999948518109 a1.4285715265325873,1.3636363168346777 0 0 1 1.4285715265325873,-1.3636363168346777 h4.285714579597757 a1.4285715265325873,1.3636363168346777 0 0 1 1.4285715265325873,1.3636363168346777 v2.7272726336693554 A1.4285715265325873,1.3636363168346777 0 0 1 25.714287579765934,19.090908435685122 zm0,-4.090908950504033 H21.428573000168175 v2.7272726336693554 h4.285714579597757 V14.99999948518109 zM17.14285842057043,25.9090900198585 H12.85714384097267 a1.4285715265325873,1.3636363168346777 0 0 1 -1.4285715265325873,-1.3636363168346777 V21.81818106935447 a1.4285715265325873,1.3636363168346777 0 0 1 1.4285715265325873,-1.3636363168346777 h4.285714579597757 a1.4285715265325873,1.3636363168346777 0 0 1 1.4285715265325873,1.3636363168346777 v2.7272726336693554 A1.4285715265325873,1.3636363168346777 0 0 1 17.14285842057043,25.9090900198585 zm0,-4.090908950504033 H12.85714384097267 v2.7272726336693554 h4.285714579597757 V21.81818106935447 zm0,-2.7272726336693554 H12.85714384097267 a1.4285715265325873,1.3636363168346777 0 0 1 -1.4285715265325873,-1.3636363168346777 V14.99999948518109 a1.4285715265325873,1.3636363168346777 0 0 1 1.4285715265325873,-1.3636363168346777 h4.285714579597757 a1.4285715265325873,1.3636363168346777 0 0 1 1.4285715265325873,1.3636363168346777 v2.7272726336693554 A1.4285715265325873,1.3636363168346777 0 0 1 17.14285842057043,19.090908435685122 zm0,-4.090908950504033 H12.85714384097267 v2.7272726336693554 h4.285714579597757 V14.99999948518109 zM8.571429261374906,25.9090900198585 H4.285714681777151 a1.4285715265325873,1.3636363168346777 0 0 1 -1.4285715265325873,-1.3636363168346777 V21.81818106935447 a1.4285715265325873,1.3636363168346777 0 0 1 1.4285715265325873,-1.3636363168346777 h4.285714579597757 a1.4285715265325873,1.3636363168346777 0 0 1 1.4285715265325873,1.3636363168346777 v2.7272726336693554 A1.4285715265325873,1.3636363168346777 0 0 1 8.571429261374906,25.9090900198585 zm0,-4.090908950504033 H4.285714681777151 v2.7272726336693554 h4.285714579597757 V21.81818106935447 zm0,-2.7272726336693554 H4.285714681777151 a1.4285715265325873,1.3636363168346777 0 0 1 -1.4285715265325873,-1.3636363168346777 V14.99999948518109 a1.4285715265325873,1.3636363168346777 0 0 1 1.4285715265325873,-1.3636363168346777 h4.285714579597757 a1.4285715265325873,1.3636363168346777 0 0 1 1.4285715265325873,1.3636363168346777 v2.7272726336693554 A1.4285715265325873,1.3636363168346777 0 0 1 8.571429261374906,19.090908435685122 zm0,-4.090908950504033 H4.285714681777151 v2.7272726336693554 h4.285714579597757 V14.99999948518109 z" class="" fill-opacity="1" fill="#03a9f4" id="svg_2"/></g></svg>