<svg xmlns="http://www.w3.org/2000/svg" width="22" height="22" viewBox="0 0 22 22">
  <path fill="#03A9F4" d="M14,7 L14,3 L13,3 L13,2 L15,2 L15,3 L15,8 L14,8 L1,8 L1,11 L2,11 L2,9 L5,11.5 L2,14 L2,12 L1,12 L0,12 L0,7 L1,7 L14,7 Z M20,12 L20,18 L19,18 L19,12 L18,12 L18,11 L20,11 L20,12 Z M1,0 L12,0 C12.5522847,-1.01453063e-16 13,0.44771525 13,1 L13,4 C13,4.55228475 12.5522847,5 12,5 L1,5 C0.44771525,5 6.76353751e-17,4.55228475 0,4 L0,1 C-6.76353751e-17,0.44771525 0.44771525,1.01453063e-16 1,0 Z M7,1 L7,4 L12,4 L12,1 L7,1 Z M6,9 L17,9 C17.5522847,9 18,9.44771525 18,10 L18,13 C18,13.5522847 17.5522847,14 17,14 L6,14 C5.44771525,14 5,13.5522847 5,13 L5,10 C5,9.44771525 5.44771525,9 6,9 Z M6,10 L6,13 L17,13 L17,10 L6,10 Z M13,17 L20,17 L20,18 L13,18 L13,19 C13,19.5522847 12.5522847,20 12,20 L1,20 C0.44771525,20 6.76353751e-17,19.5522847 0,19 L0,16 C-6.76353751e-17,15.4477153 0.44771525,15 1,15 L12,15 C12.5522847,15 13,15.4477153 13,16 L13,17 Z M1,16 L1,19 L12,19 L12,16 L1,16 Z" transform="translate(1 1)"/>
</svg>
