<?xml version="1.0" encoding="UTF-8" standalone="no"?>
<!DOCTYPE svg PUBLIC "-//W3C//DTD SVG 1.1//EN" "http://www.w3.org/Graphics/SVG/1.1/DTD/svg11.dtd">
<svg version="1.1" xmlns="http://www.w3.org/2000/svg" xmlns:xlink="http://www.w3.org/1999/xlink" preserveAspectRatio="xMidYMid meet" viewBox="0 0 640 640" width="30" height="30"><defs><path d="M364.02 55.74L365.14 55.86L366.25 56.02L367.35 56.22L368.43 56.46L369.49 56.75L370.53 57.07L371.56 57.44L372.57 57.84L373.56 58.28L374.53 58.76L375.47 59.27L376.4 59.82L377.3 60.4L378.17 61.02L379.02 61.67L379.85 62.35L380.65 63.06L381.42 63.8L382.16 64.57L382.87 65.37L383.55 66.19L384.2 67.04L384.81 67.92L385.4 68.82L385.95 69.74L386.46 70.69L386.94 71.66L387.38 72.65L387.78 73.66L388.15 74.68L388.47 75.73L388.76 76.79L389 77.87L389.2 78.96L389.36 80.07L389.47 81.2L389.54 82.33L389.57 83.48L389.57 97.39L445.22 97.39L445.22 250.43L111.3 250.43L111.3 347.83L139.13 347.83L139.13 306.09L194.78 361.74L194.78 333.91L194.81 332.77L194.87 331.63L194.99 330.51L195.15 329.4L195.35 328.31L195.59 327.23L195.88 326.16L196.2 325.12L196.57 324.09L196.97 323.08L197.41 322.09L197.89 321.13L198.4 320.18L198.95 319.26L199.53 318.36L200.15 317.48L200.8 316.63L201.48 315.8L202.19 315.01L202.93 314.24L203.7 313.5L204.5 312.79L205.32 312.1L206.17 311.46L207.05 310.84L207.95 310.26L208.87 309.71L209.82 309.19L210.79 308.71L211.78 308.27L212.79 307.87L213.81 307.51L214.86 307.18L215.92 306.9L217 306.65L218.1 306.45L219.2 306.29L220.33 306.18L221.46 306.11L222.61 306.09L500.87 306.09L502.02 306.11L503.15 306.18L504.27 306.29L505.38 306.45L506.48 306.65L507.56 306.9L508.62 307.18L509.66 307.51L510.69 307.87L511.7 308.27L512.69 308.71L513.66 309.19L514.6 309.71L515.53 310.26L516.43 310.84L517.3 311.46L518.15 312.1L518.98 312.79L519.78 313.5L520.55 314.24L521.29 315.01L522 315.8L522.68 316.63L523.33 317.48L523.94 318.36L524.53 319.26L525.08 320.18L525.59 321.13L526.07 322.09L526.51 323.08L526.91 324.09L527.28 325.12L527.6 326.16L527.89 327.23L528.13 328.31L528.33 329.4L528.49 330.51L528.6 331.63L528.67 332.77L528.7 333.91L528.7 347.83L584.35 347.83L584.35 542.61L389.57 542.61L389.57 556.52L389.54 557.67L389.47 558.8L389.36 559.93L389.2 561.04L389 562.13L388.76 563.21L388.47 564.27L388.15 565.32L387.78 566.34L387.38 567.35L386.94 568.34L386.46 569.31L385.95 570.26L385.4 571.18L384.81 572.08L384.2 572.96L383.55 573.81L382.87 574.63L382.16 575.43L381.42 576.2L380.65 576.94L379.85 577.65L379.02 578.33L378.17 578.98L377.3 579.6L376.4 580.18L375.47 580.73L374.53 581.24L373.56 581.72L372.57 582.16L371.56 582.56L370.53 582.93L369.49 583.25L368.43 583.54L367.35 583.78L366.25 583.98L365.14 584.14L364.02 584.26L362.89 584.32L361.74 584.35L83.48 584.35L82.33 584.32L81.2 584.26L80.07 584.14L78.96 583.98L77.87 583.78L76.79 583.54L75.73 583.25L74.68 582.93L73.66 582.56L72.65 582.16L71.66 581.72L70.69 581.24L69.74 580.73L68.82 580.18L67.92 579.6L67.04 578.98L66.19 578.33L65.37 577.65L64.57 576.94L63.8 576.2L63.06 575.43L62.35 574.63L61.67 573.81L61.02 572.96L60.4 572.08L59.82 571.18L59.27 570.26L58.76 569.31L58.28 568.34L57.84 567.35L57.44 566.34L57.07 565.32L56.75 564.27L56.46 563.21L56.22 562.13L56.02 561.04L55.86 559.93L55.74 558.8L55.68 557.67L55.65 556.52L55.65 500.87L55.68 499.72L55.74 498.59L55.86 497.46L56.02 496.36L56.22 495.26L56.46 494.18L56.75 493.12L57.07 492.07L57.44 491.05L57.84 490.04L58.28 489.05L58.76 488.08L59.27 487.14L59.82 486.21L60.4 485.31L61.02 484.44L61.67 483.59L62.35 482.76L63.06 481.96L63.8 481.19L64.57 480.45L65.37 479.74L66.19 479.06L67.04 478.41L67.92 477.8L68.82 477.21L69.74 476.66L70.69 476.15L71.66 475.67L72.65 475.23L73.66 474.83L74.68 474.46L75.73 474.14L76.79 473.85L77.87 473.61L78.96 473.41L80.07 473.25L81.2 473.14L82.33 473.07L83.48 473.04L361.74 473.04L362.89 473.07L364.02 473.14L365.14 473.25L366.25 473.41L367.35 473.61L368.43 473.85L369.49 474.14L370.53 474.46L371.56 474.83L372.57 475.23L373.56 475.67L374.53 476.15L375.47 476.66L376.4 477.21L377.3 477.8L378.17 478.41L379.02 479.06L379.85 479.74L380.65 480.45L381.42 481.19L382.16 481.96L382.87 482.76L383.55 483.59L384.2 484.44L384.81 485.31L385.4 486.21L385.95 487.14L386.46 488.08L386.94 489.05L387.38 490.04L387.78 491.05L388.15 492.07L388.47 493.12L388.76 494.18L389 495.26L389.2 496.36L389.36 497.46L389.47 498.59L389.54 499.72L389.57 500.87L389.57 514.78L556.52 514.78L556.52 375.65L528.7 375.65L528.7 389.57L528.67 390.71L528.6 391.85L528.49 392.97L528.33 394.08L528.13 395.17L527.89 396.25L527.6 397.31L527.28 398.36L526.91 399.39L526.51 400.4L526.07 401.39L525.59 402.35L525.08 403.3L524.53 404.22L523.94 405.12L523.33 406L522.68 406.85L522 407.67L521.29 408.47L520.55 409.24L519.78 409.98L518.98 410.69L518.15 411.37L517.3 412.02L516.43 412.64L515.53 413.22L514.6 413.77L513.66 414.29L512.69 414.76L511.7 415.2L510.69 415.61L509.66 415.97L508.62 416.3L507.56 416.58L506.48 416.83L505.38 417.03L504.27 417.19L503.15 417.3L502.02 417.37L500.87 417.39L222.61 417.39L221.46 417.37L220.33 417.3L219.2 417.19L218.1 417.03L217 416.83L215.92 416.58L214.86 416.3L213.81 415.97L212.79 415.61L211.78 415.2L210.79 414.76L209.82 414.29L208.87 413.77L207.95 413.22L207.05 412.64L206.17 412.02L205.32 411.37L204.5 410.69L203.7 409.98L202.93 409.24L202.19 408.47L201.48 407.67L200.8 406.85L200.15 406L199.53 405.12L198.95 404.22L198.4 403.3L197.89 402.35L197.41 401.39L196.97 400.4L196.57 399.39L196.2 398.36L195.88 397.31L195.59 396.25L195.35 395.17L195.15 394.08L194.99 392.97L194.87 391.85L194.81 390.71L194.78 389.57L194.78 361.74L139.13 417.39L139.13 375.65L83.48 375.65L83.48 222.61L417.39 222.61L417.39 125.22L389.57 125.22L389.57 139.13L389.54 140.28L389.47 141.41L389.36 142.54L389.2 143.64L389 144.74L388.76 145.82L388.47 146.88L388.15 147.93L387.78 148.95L387.38 149.96L386.94 150.95L386.46 151.92L385.95 152.86L385.4 153.79L384.81 154.69L384.2 155.56L383.55 156.41L382.87 157.24L382.16 158.04L381.42 158.81L380.65 159.55L379.85 160.26L379.02 160.94L378.17 161.59L377.3 162.2L376.4 162.79L375.47 163.34L374.53 163.85L373.56 164.33L372.57 164.77L371.56 165.17L370.53 165.54L369.49 165.86L368.43 166.15L367.35 166.39L366.25 166.59L365.14 166.75L364.02 166.86L362.89 166.93L361.74 166.96L83.48 166.96L82.33 166.93L81.2 166.86L80.07 166.75L78.96 166.59L77.87 166.39L76.79 166.15L75.73 165.86L74.68 165.54L73.66 165.17L72.65 164.77L71.66 164.33L70.69 163.85L69.74 163.34L68.82 162.79L67.92 162.2L67.04 161.59L66.19 160.94L65.37 160.26L64.57 159.55L63.8 158.81L63.06 158.04L62.35 157.24L61.67 156.41L61.02 155.56L60.4 154.69L59.82 153.79L59.27 152.86L58.76 151.92L58.28 150.95L57.84 149.96L57.44 148.95L57.07 147.93L56.75 146.88L56.46 145.82L56.22 144.74L56.02 143.64L55.86 142.54L55.74 141.41L55.68 140.28L55.65 139.13L55.65 83.48L55.68 82.33L55.74 81.2L55.86 80.07L56.02 78.96L56.22 77.87L56.46 76.79L56.75 75.73L57.07 74.68L57.44 73.66L57.84 72.65L58.28 71.66L58.76 70.69L59.27 69.74L59.82 68.82L60.4 67.92L61.02 67.04L61.67 66.19L62.35 65.37L63.06 64.57L63.8 63.8L64.57 63.06L65.37 62.35L66.19 61.67L67.04 61.02L67.92 60.4L68.82 59.82L69.74 59.27L70.69 58.76L71.66 58.28L72.65 57.84L73.66 57.44L74.68 57.07L75.73 56.75L76.79 56.46L77.87 56.22L78.96 56.02L80.07 55.86L81.2 55.74L82.33 55.68L83.48 55.65L361.74 55.65L362.89 55.68L364.02 55.74ZM110.16 500.89L109.02 500.96L107.9 501.08L106.79 501.23L105.7 501.43L104.62 501.68L103.55 501.96L102.51 502.29L101.48 502.65L100.47 503.06L99.48 503.5L98.52 503.98L97.57 504.49L96.65 505.04L95.75 505.62L94.87 506.24L94.02 506.89L93.2 507.57L92.4 508.28L91.63 509.02L90.89 509.79L90.18 510.59L89.5 511.41L88.85 512.26L88.23 513.14L87.65 514.04L87.1 514.96L86.58 515.91L86.11 516.88L85.66 517.86L85.26 518.87L84.9 519.9L84.57 520.95L84.29 522.01L84.04 523.09L83.84 524.18L83.68 525.29L83.57 526.41L83.5 527.55L83.48 528.7L83.5 529.84L83.57 530.98L83.68 532.1L83.84 533.21L84.04 534.3L84.29 535.38L84.57 536.45L84.9 537.49L85.26 538.52L85.66 539.53L86.11 540.52L86.58 541.48L87.1 542.43L87.65 543.35L88.23 544.25L88.85 545.13L89.5 545.98L90.18 546.8L90.89 547.6L91.63 548.37L92.4 549.11L93.2 549.82L94.02 550.5L94.87 551.15L95.75 551.77L96.65 552.35L97.57 552.9L98.52 553.42L99.48 553.89L100.47 554.34L101.48 554.74L102.51 555.1L103.55 555.43L104.62 555.71L105.7 555.96L106.79 556.16L107.9 556.32L109.02 556.43L110.16 556.5L111.3 556.52L333.91 556.52L335.06 556.5L336.2 556.43L337.32 556.32L338.43 556.16L339.52 555.96L340.6 555.71L341.66 555.43L342.71 555.1L343.74 554.74L344.74 554.34L345.73 553.89L346.7 553.42L347.65 552.9L348.57 552.35L349.47 551.77L350.35 551.15L351.2 550.5L352.02 549.82L352.82 549.11L353.59 548.37L354.33 547.6L355.04 546.8L355.72 545.98L356.37 545.13L356.99 544.25L357.57 543.35L358.12 542.43L358.63 541.48L359.11 540.52L359.55 539.53L359.96 538.52L360.32 537.49L360.65 536.45L360.93 535.38L361.17 534.3L361.37 533.21L361.53 532.1L361.65 530.98L361.72 529.84L361.74 528.7L361.72 527.55L361.65 526.41L361.53 525.29L361.37 524.18L361.17 523.09L360.93 522.01L360.65 520.95L360.32 519.9L359.96 518.87L359.55 517.86L359.11 516.88L358.63 515.91L358.12 514.96L357.57 514.04L356.99 513.14L356.37 512.26L355.72 511.41L355.04 510.59L354.33 509.79L353.59 509.02L352.82 508.28L352.02 507.57L351.2 506.89L350.35 506.24L349.47 505.62L348.57 505.04L347.65 504.49L346.7 503.98L345.73 503.5L344.74 503.06L343.74 502.65L342.71 502.29L341.66 501.96L340.6 501.68L339.52 501.43L338.43 501.23L337.32 501.08L336.2 500.96L335.06 500.89L333.91 500.87L111.3 500.87L110.16 500.89ZM249.29 333.94L248.15 334.01L247.03 334.12L245.92 334.28L244.83 334.48L243.75 334.72L242.69 335.01L241.64 335.33L240.61 335.7L239.6 336.1L238.61 336.54L237.65 337.02L236.7 337.53L235.78 338.08L234.88 338.67L234 339.28L233.15 339.93L232.33 340.61L231.53 341.32L230.76 342.06L230.02 342.83L229.31 343.63L228.63 344.45L227.98 345.31L227.36 346.18L226.78 347.08L226.23 348.01L225.71 348.95L225.24 349.92L224.8 350.91L224.39 351.92L224.03 352.94L223.7 353.99L223.42 355.05L223.17 356.13L222.97 357.23L222.81 358.33L222.7 359.46L222.63 360.59L222.61 361.74L222.63 362.89L222.7 364.02L222.81 365.14L222.97 366.25L223.17 367.35L223.42 368.43L223.7 369.49L224.03 370.53L224.39 371.56L224.8 372.57L225.24 373.56L225.71 374.53L226.23 375.47L226.78 376.4L227.36 377.3L227.98 378.17L228.63 379.02L229.31 379.85L230.02 380.65L230.76 381.42L231.53 382.16L232.33 382.87L233.15 383.55L234 384.2L234.88 384.81L235.78 385.4L236.7 385.95L237.65 386.46L238.61 386.94L239.6 387.38L240.61 387.78L241.64 388.15L242.69 388.47L243.75 388.76L244.83 389L245.92 389.2L247.03 389.36L248.15 389.47L249.29 389.54L250.43 389.57L473.04 389.57L474.19 389.54L475.33 389.47L476.45 389.36L477.56 389.2L478.65 389L479.73 388.76L480.79 388.47L481.84 388.15L482.87 387.78L483.87 387.38L484.86 386.94L485.83 386.46L486.78 385.95L487.7 385.4L488.6 384.81L489.48 384.2L490.33 383.55L491.15 382.87L491.95 382.16L492.72 381.42L493.46 380.65L494.17 379.85L494.85 379.02L495.5 378.17L496.12 377.3L496.7 376.4L497.25 375.47L497.76 374.53L498.24 373.56L498.68 372.57L499.09 371.56L499.45 370.53L499.78 369.49L500.06 368.43L500.3 367.35L500.51 366.25L500.66 365.14L500.78 364.02L500.85 362.89L500.87 361.74L500.85 360.59L500.78 359.46L500.66 358.33L500.51 357.23L500.3 356.13L500.06 355.05L499.78 353.99L499.45 352.94L499.09 351.92L498.68 350.91L498.24 349.92L497.76 348.95L497.25 348.01L496.7 347.08L496.12 346.18L495.5 345.31L494.85 344.45L494.17 343.63L493.46 342.83L492.72 342.06L491.95 341.32L491.15 340.61L490.33 339.93L489.48 339.28L488.6 338.67L487.7 338.08L486.78 337.53L485.83 337.02L484.86 336.54L483.87 336.1L482.87 335.7L481.84 335.33L480.79 335.01L479.73 334.72L478.65 334.48L477.56 334.28L476.45 334.12L475.33 334.01L474.19 333.94L473.04 333.91L250.43 333.91L249.29 333.94ZM208.7 139.13L361.74 139.13L361.74 83.48L208.7 83.48L208.7 139.13Z" id="a1EfNtndiT"></path></defs><g><g><g><use xlink:href="#a1EfNtndiT" opacity="1" fill="#03a9f4" fill-opacity="1"></use><g><use xlink:href="#a1EfNtndiT" opacity="1" fill-opacity="0" stroke="#000000" stroke-width="1" stroke-opacity="0"></use></g></g></g></g></svg>